# xmcd
#
# Track frame offsets: 
#        150
#        11135
#        18070
#        23580
#        30785
#        41377
#        59382
#        61405
#        69475
#        73485
#        77032
#        85757
#        110067
#        123037
#        142750
#        153230
#        156272
#        172220
#        182460
#
# Disc length: 2578 seconds
#
# Revision: 3
# Processed by: cddbd v1.5.2PL0 Copyright (c) Steve Scherf et al.
# Submitted via: ExactAudioCopyFreeDBPlugin 1.0
#
DISCID=ea0a1013
DTITLE=Willie Nelson - Red Headed Stranger [RM 2000]
DYEAR=1975
DGENRE=Country
TTITLE0=Time of the Preacher
TTITLE1=I Couldn't Believe It Was True
TTITLE2=Time of the Preacher Theme
TTITLE3=Medley: Blue Rock Montana--Redheaded Stranger
TTITLE4=Blue Eyes Crying in the Rain
TTITLE5=Red Headed Stranger
TTITLE6=Time of the Preacher Theme (2)
TTITLE7=Just As I Am
TTITLE8=Denver
TTITLE9=O'er the Waves
TTITLE10=Down Yonder
TTITLE11=Can I Sleep in Your Arms
TTITLE12=Remember Me
TTITLE13=Hands on the Wheel
TTITLE14=Bandera
TTITLE15=Bach Minuet in G
TTITLE16=Can't Help It (If I'm Still in Love with You)
TTITLE17=A Maiden's Prayer
TTITLE18=Bonaparte's Retreat
EXTD=
EXTT0=
EXTT1=
EXTT2=
EXTT3=
EXTT4=
EXTT5=
EXTT6=
EXTT7=
EXTT8=
EXTT9=
EXTT10=
EXTT11=
EXTT12=
EXTT13=
EXTT14=
EXTT15=
EXTT16=
EXTT17=
EXTT18=
PLAYORDER=
